<?xml version="1.0" encoding="utf-8"?>
<!-- Generator: Adobe Illustrator 25.4.1, SVG Export Plug-In . SVG Version: 6.00 Build 0)  -->
<svg version="1.1" id="レイヤー_1" xmlns="http://www.w3.org/2000/svg" xmlns:xlink="http://www.w3.org/1999/xlink" x="0px"
	 y="0px" viewBox="0 0 316 33" style="enable-background:new 0 0 316 33;" xml:space="preserve">
<style type="text/css">
	.st0{fill:#1E1E1E;}
</style>
<g id="グループ_572" transform="translate(-127.278 -110.766)">
	<g id="グループ_573" transform="translate(127.278 110.766)">
		<g id="グループ_572-2">
			<path id="パス_136" class="st0" d="M0,0.5l3.1,32.1h25.6l3.1-32.1L0,0.5z"/>
		</g>
	</g>
	<g id="グループ_584" transform="translate(186.665 116.933)">
		<g id="グループ_574" transform="translate(0 0.406)">
			<path id="パス_137" class="st0" d="M3.4,10.7L12,1h4l-5.4,6.3l6.6,12.1h-3.8L8.3,9.8L3.4,15v4.4H0v-19h3.3V10.7z"/>
		</g>
		<g id="グループ_575" transform="translate(26.192 0.406)">
			<path id="パス_138" class="st0" d="M0.1,11.9C0,9,0,0.5,0,0.5h3.3c0,0-0.1,8.8,0,11.6c0.1,1.6,0.5,4.9,4.6,4.9
				c4.1,0,4.5-3.2,4.6-5c0.1-2.8,0-11.4,0-11.4H16c0,0,0.1,8.3-0.1,11.1c-0.2,5.1-2.5,8.2-8,8.2C2.6,19.8,0.2,16.1,0.1,11.9z"/>
		</g>
		<g id="グループ_576" transform="translate(54.125 0.352)">
			<path id="パス_139" class="st0" d="M3.4,12.9v6.5H0V0.5c0,0,3.6-0.1,6.9-0.1c5.3,0,7.9,2.3,7.9,6c0.1,2.1-1,4.1-2.9,5.2
				l3.5,7.8h-3.8l-2.7-6.7c-0.7,0.1-1.4,0.2-2.1,0.2C5.5,13,4.4,13,3.4,12.9z M7.1,10.2c2.9-0.1,4.3-1.2,4.3-3.6
				c0-2.4-1.6-3.3-4.3-3.4c-1.7-0.1-2.9,0-3.8,0.1v6.8C4,10.2,5.7,10.3,7.1,10.2L7.1,10.2z"/>
		</g>
		<g id="グループ_577" transform="translate(79.105 0.406)">
			<path id="パス_140" class="st0" d="M14,14.8H5.3l-1.7,4.5H0L7.9,0.4h3.7l7.8,18.9h-3.7L14,14.8z M13,12L9.8,3.8H9.4L6.2,12H13z
				"/>
		</g>
		<g id="グループ_578" transform="translate(108.759)">
			<path id="パス_141" class="st0" d="M0,18l1.1-2.8c1.8,1.2,4,1.9,6.2,2c2,0,3.4-0.8,3.4-2.2s-1.4-2-5.4-3.7
				C2.2,10,0.4,8,0.9,5.2c0.4-2.5,2.8-4.8,6.3-4.8c2.2-0.1,4.3,0.7,6,2l-1.4,2.7C10.5,4,8.9,3.4,7.2,3.5c-1.6,0-2.9,0.8-2.9,2.2
				c0,1.5,0.6,1.8,3.2,3c3.7,1.6,6.7,2.7,6.7,6.1c0,3-2.4,5.4-7,5.4C4.6,20.2,2.1,19.4,0,18z"/>
		</g>
		<g id="グループ_579" transform="translate(134.376 0.406)">
			<path id="パス_142" class="st0" d="M12.7,11.3H3.4v8.1H0v-19h3.3v7.9h9.3V0.4H16v18.9h-3.3V11.3z"/>
		</g>
		<g id="グループ_580" transform="translate(179.952 0.027)">
			<path id="パス_143" class="st0" d="M9.6,20.2c-5.4-0.2-9.6-4.8-9.4-10.3c0.2-5.3,4.6-9.4,9.9-9.4C12.5,0.4,15,1.2,17,2.6
				l-1.4,2.7c-1.7-1.2-3.7-1.9-5.7-1.8c-3.9,0-6.4,3.1-6.4,6.8c0,3.7,2.6,6.9,6.5,6.9c2.1,0,4.2-0.9,5.7-2.4l1.6,2.3
				C15.2,19.2,12.4,20.2,9.6,20.2z"/>
		</g>
		<g id="グループ_581" transform="translate(164.282 0.406)">
			<path id="パス_144" class="st0" d="M0,0.4h3.4v18.9H0V0.4z"/>
		</g>
		<g id="グループ_582" transform="translate(206.528)">
			<path id="パス_145" class="st0" d="M0,10.3C0.2,5,4.6,0.8,9.9,1s9.5,4.6,9.3,9.9c-0.2,5.2-4.4,9.3-9.6,9.3
				c-5.4,0-9.7-4.4-9.7-9.7C0,10.4,0,10.4,0,10.3z M9.8,17.2c3.8,0,6.1-3,6.1-6.8c0-3.7-2.6-7-6.3-7s-6.1,3-6.1,6.7
				C3.4,13.9,6,17.2,9.8,17.2L9.8,17.2z"/>
		</g>
		<g id="グループ_583" transform="translate(236.164 0.406)">
			<path id="パス_146" class="st0" d="M3.3,4.7l0,1.2v13.5H0v-19h4.1l6,10l6.1-10h4.2v18.9h-3.3V5.8l0-1.2l-6,9.5h-2L3.3,4.7z"/>
		</g>
	</g>
</g>
</svg>
